<svg xmlns="http://www.w3.org/2000/svg" viewBox="0 0 32 32" id="successful-booking"><path fill="#787681" d="M2.5 4.5h27v20h-27z"></path><path fill="#57565c" d="M28.5 4.5h1v20h-1z"></path><path fill="#52bbe9" d="M4.5 6.5h23v16h-23z"></path><path fill="#1cabe1" d="M26.5 6.5h1v16h-1z"></path><path fill="#aeadb3" d="M.5 24.5h31v4H.5z"></path><path fill="#8b8893" d="M30.5 24.5h1v4h-1z"></path><path fill="#fff" d="M17.5 26.5h-3l-1-2h5l-1 2z"></path><path fill="#fee27d" d="M22.5 14.5a1 1 0 0 1 1-1v-3h-15v3a1 1 0 0 1 0 2v3h15v-3a1 1 0 0 1-1-1Z"></path><path fill="#fddd5a" d="M23.5 13.5v-3h-1v3a1 1 0 0 0 0 2v3h1v-3a1 1 0 0 1 0-2Z"></path><path fill="#fff" d="m15.5 17.06-2.35-2.36.7-.7 1.65 1.64 3.62-3.7.71.7-4.33 4.42z"></path></svg>